<svg xmlns="http://www.w3.org/2000/svg" style="display:none">
  <symbol id="icon-lightbulb" viewBox="0 0 24 24"><path d="M9 18c0-3 3-3 3-6 0-2-1.79-3.25-1.79-5.25C10.21 4.78 11.56 3 14 3c3 0 5 2.5 5 5.5 0 3.5-3 4.5-3 7.5M10 22h4" fill="none" stroke="currentColor" stroke-width="1.5" stroke-linecap="round"/></symbol>
  <symbol id="icon-presence" viewBox="0 0 24 24"><circle cx="12" cy="12" r="2" fill="none" stroke="currentColor" stroke-width="1.5"/><path d="M4 12a8 8 0 0 1 16 0M2 12a10 10 0 0 1 20 0" fill="none" stroke="currentColor" stroke-width="1.5" stroke-linecap="round"/></symbol>
  <symbol id="icon-led-strip" viewBox="0 0 24 24"><rect x="3" y="10" width="18" height="4" rx="2" fill="none" stroke="currentColor" stroke-width="1.5"/><circle cx="7" cy="12" r="0.7" fill="currentColor"/><circle cx="12" cy="12" r="0.7" fill="currentColor"/><circle cx="17" cy="12" r="0.7" fill="currentColor"/></symbol>
  <symbol id="icon-fan" viewBox="0 0 24 24"><circle cx="12" cy="12" r="1.5" fill="currentColor"/><path d="M12 4c3 0 3 3 0 3-3 0-3-3 0-3Zm8 8c0-3-3-3-3 0 0 3 3 3 3 0ZM12 17c3 0 3 3 0 3-3 0-3-3 0-3ZM4 12c0-3 3-3 3 0 0 3-3 3-3 0Z" fill="none" stroke="currentColor" stroke-width="1.2"/></symbol>
  <symbol id="icon-curtains" viewBox="0 0 24 24"><path d="M3 4h18M5 4v16M19 4v16M5 6h6v14M13 6h6v14" fill="none" stroke="currentColor" stroke-width="1.5" stroke-linejoin="round"/></symbol>
  <symbol id="icon-button" viewBox="0 0 24 24"><rect x="6" y="6" width="12" height="12" rx="2" fill="none" stroke="currentColor" stroke-width="1.5"/><circle cx="12" cy="12" r="2.2" fill="none" stroke="currentColor" stroke-width="1.5"/></symbol>
  <symbol id="icon-outlet" viewBox="0 0 24 24"><rect x="4" y="6" width="16" height="12" rx="2" fill="none" stroke="currentColor" stroke-width="1.5"/><circle cx="10" cy="12" r="1" fill="currentColor"/><circle cx="14" cy="12" r="1" fill="currentColor"/></symbol>
  <symbol id="icon-toothbrush" viewBox="0 0 24 24"><path d="M3 14h9a3 3 0 0 0 3-3v-1H9v1a1 1 0 0 1-1 1H3zM16 10V6h2v4M19 10V6h2v4" fill="none" stroke="currentColor" stroke-width="1.5" stroke-linecap="round"/></symbol>
  <symbol id="icon-faucet" viewBox="0 0 24 24"><path d="M5 12h14M12 12v-3a3 3 0 0 1 3-3h4M8 12v3a2 2 0 0 0 2 2h4" fill="none" stroke="currentColor" stroke-width="1.5" stroke-linecap="round"/></symbol>
  <symbol id="icon-microwave" viewBox="0 0 24 24"><rect x="3" y="6" width="18" height="12" rx="2" fill="none" stroke="currentColor" stroke-width="1.5"/><rect x="6" y="9" width="9" height="6" rx="1" fill="none" stroke="currentColor" stroke-width="1.2"/><circle cx="18" cy="10" r="0.9" fill="currentColor"/><circle cx="18" cy="13" r="0.9" fill="currentColor"/></symbol>
  <symbol id="icon-tv" viewBox="0 0 24 24"><rect x="3" y="6" width="18" height="11" rx="2" fill="none" stroke="currentColor" stroke-width="1.5"/><path d="M8 20h8" stroke="currentColor" stroke-width="1.5" stroke-linecap="round"/></symbol>
  <symbol id="icon-thermometer" viewBox="0 0 24 24"><path d="M10 5a2 2 0 0 1 4 0v7a4 4 0 1 1-4 0V5z" fill="none" stroke="currentColor" stroke-width="1.5"/><path d="M12 12v4" stroke="currentColor" stroke-width="1.5" stroke-linecap="round"/></symbol>
  <symbol id="icon-washer" viewBox="0 0 24 24"><rect x="4" y="4" width="16" height="16" rx="2" fill="none" stroke="currentColor" stroke-width="1.5"/><circle cx="12" cy="14" r="4" fill="none" stroke="currentColor" stroke-width="1.5"/></symbol>
  <symbol id="icon-dryer" viewBox="0 0 24 24"><rect x="4" y="4" width="16" height="16" rx="2" fill="none" stroke="currentColor" stroke-width="1.5"/><path d="M8 8h8" stroke="currentColor" stroke-width="1.5" stroke-linecap="round"/><circle cx="12" cy="14" r="4" fill="none" stroke="currentColor" stroke-width="1.5"/></symbol>
  <symbol id="icon-water" viewBox="0 0 24 24"><path d="M12 4c4 5 6 8 6 10a6 6 0 1 1-12 0c0-2 2-5 6-10z" fill="none" stroke="currentColor" stroke-width="1.5"/></symbol>
  <symbol id="icon-hexalights" viewBox="0 0 24 24"><path d="M7 5l5-3 5 3v6l-5 3-5-3zM7 13l5-3 5 3v6l-5 3-5-3z" fill="none" stroke="currentColor" stroke-width="1.3"/></symbol>
  <symbol id="icon-remote" viewBox="0 0 24 24"><rect x="8" y="4" width="8" height="16" rx="2" fill="none" stroke="currentColor" stroke-width="1.5"/><circle cx="12" cy="9" r="1" fill="currentColor"/><path d="M10 13h4M10 16h4" stroke="currentColor" stroke-width="1.5" stroke-linecap="round"/></symbol>
  <symbol id="icon-network" viewBox="0 0 24 24"><circle cx="12" cy="7" r="2" fill="none" stroke="currentColor" stroke-width="1.5"/><circle cx="7" cy="17" r="2" fill="none" stroke="currentColor" stroke-width="1.5"/><circle cx="17" cy="17" r="2" fill="none" stroke="currentColor" stroke-width="1.5"/><path d="M12 9v4M12 13l-3 2M12 13l3 2" stroke="currentColor" stroke-width="1.5" stroke-linecap="round"/></symbol>
  <symbol id="icon-bell" viewBox="0 0 24 24"><path d="M6 10a6 6 0 1 1 12 0v4l2 2H4l2-2v-4" fill="none" stroke="currentColor" stroke-width="1.5"/><path d="M10 20a2 2 0 0 0 4 0" stroke="currentColor" stroke-width="1.5" stroke-linecap="round"/></symbol>
  <symbol id="icon-garage" viewBox="0 0 24 24"><path d="M3 10l9-6 9 6v8a2 2 0 0 1-2 2H5a2 2 0 0 1-2-2z" fill="none" stroke="currentColor" stroke-width="1.5"/><path d="M7 14h10M7 17h10" stroke="currentColor" stroke-width="1.5" stroke-linecap="round"/></symbol>
  <symbol id="icon-mouse" viewBox="0 0 24 24"><path d="M8 8c0-2.2 1.8-4 4-4s4 1.8 4 4v6a4 4 0 0 1-8 0V8z" fill="none" stroke="currentColor" stroke-width="1.5"/><path d="M12 6v3" stroke="currentColor" stroke-width="1.5" stroke-linecap="round"/></symbol>
  <symbol id="icon-switch" viewBox="0 0 24 24"><rect x="5" y="8" width="14" height="8" rx="4" fill="none" stroke="currentColor" stroke-width="1.5"/><circle cx="15" cy="12" r="3" fill="none" stroke="currentColor" stroke-width="1.5"/></symbol>
  <symbol id="icon-camera" viewBox="0 0 24 24"><rect x="3" y="7" width="18" height="12" rx="2" fill="none" stroke="currentColor" stroke-width="1.5"/><circle cx="12" cy="13" r="3.5" fill="none" stroke="currentColor" stroke-width="1.5"/></symbol>
  <symbol id="icon-robot" viewBox="0 0 24 24"><rect x="6" y="8" width="12" height="10" rx="2" fill="none" stroke="currentColor" stroke-width="1.5"/><circle cx="10" cy="12" r="1" fill="currentColor"/><circle cx="14" cy="12" r="1" fill="currentColor"/><path d="M12 4v2M8 18v2M16 18v2" stroke="currentColor" stroke-width="1.5" stroke-linecap="round"/></symbol>
  <symbol id="icon-hub" viewBox="0 0 24 24"><rect x="5" y="9" width="14" height="8" rx="2" fill="none" stroke="currentColor" stroke-width="1.5"/><path d="M7 9V7h10v2" stroke="currentColor" stroke-width="1.5" stroke-linecap="round"/></symbol>
  <symbol id="icon-misc" viewBox="0 0 24 24"><circle cx="12" cy="12" r="6" fill="none" stroke="currentColor" stroke-width="1.5"/></symbol>
</svg>